<?xml version="1.0" encoding="UTF-8" standalone="no"?>
<svg
   xmlns:dc="http://purl.org/dc/elements/1.1/"
   xmlns:cc="http://creativecommons.org/ns#"
   xmlns:rdf="http://www.w3.org/1999/02/22-rdf-syntax-ns#"
   xmlns:svg="http://www.w3.org/2000/svg"
   xmlns="http://www.w3.org/2000/svg"
   xmlns:xlink="http://www.w3.org/1999/xlink"
   xmlns:sodipodi="http://sodipodi.sourceforge.net/DTD/sodipodi-0.dtd"
   xmlns:inkscape="http://www.inkscape.org/namespaces/inkscape"
   version="1.1"
   id="svg2"
   viewBox="0 0 350.79492 350.79492"
   inkscape:version="0.91 r13725"
   sodipodi:docname="gear.svg"
   width="350.79492"
   height="350.79492">
  <sodipodi:namedview
     pagecolor="#ffffff"
     bordercolor="#666666"
     borderopacity="1"
     objecttolerance="10"
     gridtolerance="10"
     guidetolerance="10"
     inkscape:pageopacity="0"
     inkscape:pageshadow="2"
     inkscape:window-width="1276"
     inkscape:window-height="766"
     id="namedview5034"
     showgrid="false"
     fit-margin-top="0"
     fit-margin-left="0"
     fit-margin-right="0"
     fit-margin-bottom="0"
     inkscape:zoom="0.944"
     inkscape:cx="-37.417307"
     inkscape:cy="228.47396"
     inkscape:window-x="0"
     inkscape:window-y="15"
     inkscape:window-maximized="0"
     inkscape:current-layer="svg2" />
  <defs
     id="defs4">
    <linearGradient
       id="linearGradient4871">
      <stop
         id="stop4873"
         offset="0"
         style="stop-color:#000000;stop-opacity:1;" />
      <stop
         id="stop4875"
         offset="1"
         style="stop-color:#000000;stop-opacity:0;" />
    </linearGradient>
    <radialGradient
       gradientUnits="userSpaceOnUse"
       r="175.39746"
       fy="0"
       fx="-5.6843419e-14"
       cy="0"
       cx="-5.6843419e-14"
       id="radialGradient4877"
       xlink:href="#linearGradient4871" />
    <radialGradient
       inkscape:collect="always"
       xlink:href="#linearGradient4871"
       id="radialGradient5576"
       gradientUnits="userSpaceOnUse"
       cx="-5.6843419e-14"
       cy="0"
       fx="-5.6843419e-14"
       fy="0"
       r="175.39746" />
    <radialGradient
       inkscape:collect="always"
       xlink:href="#linearGradient4871"
       id="radialGradient5578"
       gradientUnits="userSpaceOnUse"
       cx="-5.6843419e-14"
       cy="0"
       fx="-5.6843419e-14"
       fy="0"
       r="175.39746" />
  </defs>
  <metadata
     id="metadata7">
    <rdf:RDF>
      <cc:Work
         rdf:about="">
        <dc:format>image/svg+xml</dc:format>
        <dc:type
           rdf:resource="http://purl.org/dc/dcmitype/StillImage" />
        <dc:title></dc:title>
      </cc:Work>
    </rdf:RDF>
  </metadata>
  <g
     id="layer1"
     transform="translate(-2.45968,-2.67904)">
    <g
       style="fill:url(#radialGradient4877);fill-opacity:1"
       transform="translate(177.85714,178.0765)"
       id="g4840">
      <path
         d="m 142.7775,-11.49461 13.45404,-1.08314 2.43278,0.0906 16.23314,4.70665 0,15.561 -16.23314,4.70665 -2.43278,0.0906 -13.45404,-1.08314 -3.436,21.69404 13.13026,3.1274 2.28572,0.83793 13.9842,9.49262 -4.80862,14.79938 -16.89307,-0.54002 -2.34171,-0.6656 -12.46084,-5.18767 -9.97166,19.57049 11.52121,7.0318 1.91491,1.50325 10.36638,13.34937 -9.14652,12.5891 -15.89939,-5.73383 -2.02142,-1.35666 -10.24789,-8.78437 -15.53122,15.53122 8.78437,10.24789 1.35666,2.02142 5.73383,15.89939 -12.5891,9.14652 -13.34937,-10.36638 -1.50325,-1.91491 -7.0318,-11.52121 -19.57049,9.97166 5.18767,12.46084 0.6656,2.34171 0.54002,16.89307 -14.79938,4.80862 -9.49262,-13.9842 -0.83793,-2.28572 -3.1274,-13.13026 -21.69404,3.436 1.08314,13.45404 -0.0906,2.43278 -4.70665,16.23314 -15.561,0 -4.70665,-16.23314 -0.0906,-2.43278 1.08314,-13.45404 -21.69404,-3.436 -3.1274,13.13026 -0.83793,2.28572 -9.49262,13.9842 -14.79938,-4.80862 0.54002,-16.89307 0.6656,-2.34171 5.18767,-12.46084 -19.57049,-9.97166 -7.0318,11.52121 -1.50325,1.91491 -13.34937,10.36638 -12.5891,-9.14652 5.73383,-15.89939 1.35666,-2.02142 8.78437,-10.24789 -15.53122,-15.53122 -10.24789,8.78437 -2.02142,1.35666 -15.89939,5.73383 -9.14652,-12.5891 10.36638,-13.34937 1.91491,-1.50325 11.52121,-7.0318 -9.97166,-19.57049 -12.46084,5.18767 -2.34171,0.6656 -16.89307,0.54002 -4.80862,-14.79938 13.9842,-9.49262 2.28572,-0.83793 13.13026,-3.1274 -3.436,-21.69404 -13.45404,1.08314 -2.43278,-0.0906 -16.23314,-4.70665 0,-15.561 16.23314,-4.70665 2.43278,-0.0906 13.45404,1.08314 3.436,-21.69404 -13.13026,-3.1274 -2.28572,-0.83793 -13.9842,-9.49262 4.80862,-14.79938 16.89307,0.54002 2.34171,0.6656 12.46084,5.18767 9.97166,-19.57049 -11.52121,-7.0318 -1.91491,-1.50325 -10.36638,-13.34937 9.14652,-12.5891 15.89939,5.73383 2.02142,1.35666 10.24789,8.78437 15.53122,-15.53122 -8.78437,-10.24789 -1.35666,-2.02142 -5.73383,-15.89939 12.5891,-9.14652 13.34937,10.36638 1.50325,1.91491 7.0318,11.52121 19.57049,-9.97166 -5.18767,-12.46084 -0.6656,-2.34171 -0.54002,-16.89307 14.79938,-4.80862 9.49262,13.9842 0.83793,2.28572 3.1274,13.13026 21.69404,-3.436 -1.08314,-13.45404 0.0906,-2.43278 4.70665,-16.23314 15.561,0 4.70665,16.23314 0.0906,2.43278 -1.08314,13.45404 21.69404,3.436 3.1274,-13.13026 0.83793,-2.28572 9.49262,-13.9842 14.79938,4.80862 -0.54002,16.89307 -0.6656,2.34171 -5.18767,12.46084 19.57049,9.97166 7.0318,-11.52121 1.50325,-1.91491 13.34937,-10.36638 12.5891,9.14652 -5.73383,15.89939 -1.35666,2.02142 -8.78437,10.24789 15.53122,15.53122 10.24789,-8.78437 2.02142,-1.35666 15.89939,-5.73383 9.14652,12.5891 -10.36638,13.34937 -1.91491,1.50325 -11.52121,7.0318 9.97166,19.57049 12.46084,-5.18767 2.34171,-0.6656 16.89307,-0.54002 4.80862,14.79938 -13.9842,9.49262 -2.28572,0.83793 -13.13026,3.1274 z"
         style="fill:url(#radialGradient5576);fill-opacity:1;stroke:#000000;stroke-width:1"
         id="path4842"
         inkscape:connector-curvature="0" />
      <circle
         r="50"
         cy="0"
         cx="0"
         style="fill:url(#radialGradient5578);fill-opacity:1;stroke:#000000;stroke-width:1"
         id="path4844" />
    </g>
  </g>
</svg>
