<?xml version="1.0" encoding="UTF-8" standalone="no"?>
<svg
   xmlns:dc="http://purl.org/dc/elements/1.1/"
   xmlns:cc="http://creativecommons.org/ns#"
   xmlns:rdf="http://www.w3.org/1999/02/22-rdf-syntax-ns#"
   xmlns:svg="http://www.w3.org/2000/svg"
   xmlns="http://www.w3.org/2000/svg"
   xmlns:sodipodi="http://sodipodi.sourceforge.net/DTD/sodipodi-0.dtd"
   xmlns:inkscape="http://www.inkscape.org/namespaces/inkscape"
   width="24"
   height="24"
   viewBox="0 0 24 24"
   id="svg4171"
   version="1.1"
   inkscape:version="0.91 r13725"
   sodipodi:docname="iconmonstr-binoculars-7.svg">
  <metadata
     id="metadata4179">
    <rdf:RDF>
      <cc:Work
         rdf:about="">
        <dc:format>image/svg+xml</dc:format>
        <dc:type
           rdf:resource="http://purl.org/dc/dcmitype/StillImage" />
      </cc:Work>
    </rdf:RDF>
  </metadata>
  <defs
     id="defs4177" />
  <sodipodi:namedview
     pagecolor="#ffffff"
     bordercolor="#666666"
     borderopacity="1"
     objecttolerance="10"
     gridtolerance="10"
     guidetolerance="10"
     inkscape:pageopacity="0"
     inkscape:pageshadow="2"
     inkscape:window-width="1916"
     inkscape:window-height="1046"
     id="namedview4175"
     showgrid="false"
     inkscape:zoom="34.541667"
     inkscape:cx="4.8781665"
     inkscape:cy="12"
     inkscape:window-x="1280"
     inkscape:window-y="15"
     inkscape:window-maximized="0"
     inkscape:current-layer="svg4171" />
  <path
     d="M20.465 14.646c1.398 1.516-.156 3.949-2.146 3.227 1.462-.311 2.47-1.49 2.146-3.227zm-16.148 3.227c1.99.722 3.545-1.71 2.146-3.227.325 1.737-.683 2.916-2.146 3.227zm12.554-13.561c-.282-.764-1.01-1.312-1.871-1.312-1.298 0-2.313 1.244-1.904 2.582 1.111-.395 2.346-1.103 3.775-1.27zm7.129 11.688c0 2.761-2.238 5-5 5-4.039 0-4.156-4.123-7-4.123s-2.961 4.123-7 4.123c-2.762 0-5-2.239-5-5 0-2.135 1.535-4.567 3.941-8.821 1.908-3.372 4.754-1.26 6.815-.585.781.256 1.654.272 2.486 0 2.062-.674 4.908-2.787 6.815.585 2.408 4.254 3.943 6.686 3.943 8.821zm-16 0c0-1.654-1.346-3-3-3s-3 1.346-3 3 1.346 3 3 3 3-1.346 3-3zm5-2c0-.552-.447-1-1-1s-1 .448-1 1 .447 1 1 1 1-.448 1-1zm9 2c0-1.654-1.346-3-3-3s-3 1.346-3 3 1.346 3 3 3 3-1.346 3-3zm-13-13c-.861 0-1.589.548-1.871 1.312 1.429.168 2.664.875 3.775 1.27.409-1.338-.606-2.582-1.904-2.582z"
     id="path4173"
     style="fill:#8c8c8c;fill-opacity:1" />
</svg>
